# xmcd
#
# Track frame offsets:
#	150
#	11279
#	19170
#	30005
#	43585
#	49518
#	60502
#	73245
#	85634
#	105998
#	120183
#	129462
#	142094
#	153537
#	163111
#	168018
#	184536
#	188398
#	195232
#
# Disc length: 2886 seconds
#
# Revision: 0
# Processed by: cddbd v1.5.2PL0 Copyright (c) Steve Scherf et al.
# Submitted via: EasyCDDAExtractor 11.1.0.1
#
DISCID=d80b4413
DTITLE=Bosák Jiří - Pivní pěna - Bosákovy sprosté písně z kadibudky J-N [CD2)
DYEAR=2007
DGENRE=Country
TTITLE0=Já mám ráda políra
TTITLE1=Jedna, dva, tři
TTITLE2=Kartáčník
TTITLE3=Kdes kukačko
TTITLE4=Kdyby nám to stálo
TTITLE5=Když jsem byl fertig
TTITLE6=Když jsem já sloužil
TTITLE7=Když jsem vyšel ze Všetat
TTITLE8=Když se maže, tak se jede
TTITLE9=Kominíček
TTITLE10=Kostelník
TTITLE11=Krásná je za noci
TTITLE12=Lidičky, já mám rád pivo
TTITLE13=Má milá je Blažková
TTITLE14=Mámo, já se vdám
TTITLE15=Marjánko, pojď se mnou
TTITLE16=Matěj kolenatej
TTITLE17=Mlynářská
TTITLE18=Na hradě v zahradě
EXTD=
EXTT0=
EXTT1=
EXTT2=
EXTT3=
EXTT4=
EXTT5=
EXTT6=
EXTT7=
EXTT8=
EXTT9=
EXTT10=
EXTT11=
EXTT12=
EXTT13=
EXTT14=
EXTT15=
EXTT16=
EXTT17=
EXTT18=
PLAYORDER=
